<mxfile host="Electron" modified="2024-05-25T17:06:55.917Z" agent="Mozilla/5.0 (Macintosh; Intel Mac OS X 10_15_7) AppleWebKit/537.36 (KHTML, like Gecko) draw.io/23.1.5 Chrome/120.0.6099.109 Electron/28.1.0 Safari/537.36" etag="I9vaDQUSn-J4e6cx6hwo" version="23.1.5" type="device">
  <diagram id="fPXpyIchqtCRjfeOFH64" name="第 1 页">
    <mxGraphModel dx="1025" dy="854" grid="0" gridSize="10" guides="1" tooltips="1" connect="1" arrows="1" fold="1" page="1" pageScale="1" pageWidth="827" pageHeight="160" math="0" shadow="0">
      <root>
        <mxCell id="0" />
        <mxCell id="1" parent="0" />
        <mxCell id="pHMIvahdG2m0EPIFcXSv-6" style="edgeStyle=orthogonalEdgeStyle;rounded=0;orthogonalLoop=1;jettySize=auto;html=1;entryX=0;entryY=0.5;entryDx=0;entryDy=0;fontFamily=Times New Roman;fontSize=13;" parent="1" source="pHMIvahdG2m0EPIFcXSv-2" target="pHMIvahdG2m0EPIFcXSv-3" edge="1">
          <mxGeometry relative="1" as="geometry" />
        </mxCell>
        <mxCell id="pHMIvahdG2m0EPIFcXSv-7" style="edgeStyle=orthogonalEdgeStyle;rounded=0;orthogonalLoop=1;jettySize=auto;html=1;fontFamily=Times New Roman;fontSize=13;" parent="1" source="pHMIvahdG2m0EPIFcXSv-2" target="pHMIvahdG2m0EPIFcXSv-4" edge="1">
          <mxGeometry relative="1" as="geometry" />
        </mxCell>
        <mxCell id="pHMIvahdG2m0EPIFcXSv-8" style="edgeStyle=orthogonalEdgeStyle;rounded=0;orthogonalLoop=1;jettySize=auto;html=1;entryX=0;entryY=0.5;entryDx=0;entryDy=0;fontFamily=Times New Roman;fontSize=13;" parent="1" source="pHMIvahdG2m0EPIFcXSv-2" target="pHMIvahdG2m0EPIFcXSv-5" edge="1">
          <mxGeometry relative="1" as="geometry" />
        </mxCell>
        <mxCell id="pHMIvahdG2m0EPIFcXSv-2" value="&lt;span style=&quot;font-size: 13px;&quot;&gt;Fragment Instance&lt;/span&gt;" style="rounded=1;whiteSpace=wrap;html=1;fillColor=none;fontColor=#333333;strokeColor=#666666;fontStyle=0;fontFamily=Times New Roman;fontSize=13;" parent="1" vertex="1">
          <mxGeometry x="18" y="56" width="145" height="40" as="geometry" />
        </mxCell>
        <mxCell id="pHMIvahdG2m0EPIFcXSv-12" style="edgeStyle=orthogonalEdgeStyle;rounded=0;orthogonalLoop=1;jettySize=auto;html=1;entryX=0;entryY=0.5;entryDx=0;entryDy=0;fontFamily=Times New Roman;fontSize=13;" parent="1" source="pHMIvahdG2m0EPIFcXSv-3" target="pHMIvahdG2m0EPIFcXSv-9" edge="1">
          <mxGeometry relative="1" as="geometry" />
        </mxCell>
        <mxCell id="pHMIvahdG2m0EPIFcXSv-3" value="数据行" style="rounded=0;whiteSpace=wrap;html=1;fillColor=none;strokeColor=#23445d;fontFamily=Times New Roman;fontSize=13;" parent="1" vertex="1">
          <mxGeometry x="206" y="12" width="120" height="22" as="geometry" />
        </mxCell>
        <mxCell id="pHMIvahdG2m0EPIFcXSv-13" style="edgeStyle=orthogonalEdgeStyle;rounded=0;orthogonalLoop=1;jettySize=auto;html=1;fontFamily=Times New Roman;fontSize=13;" parent="1" source="pHMIvahdG2m0EPIFcXSv-4" target="pHMIvahdG2m0EPIFcXSv-10" edge="1">
          <mxGeometry relative="1" as="geometry" />
        </mxCell>
        <mxCell id="pHMIvahdG2m0EPIFcXSv-4" value="数据行" style="rounded=0;whiteSpace=wrap;html=1;fillColor=none;strokeColor=#23445d;fontFamily=Times New Roman;fontSize=13;" parent="1" vertex="1">
          <mxGeometry x="206" y="65" width="120" height="22" as="geometry" />
        </mxCell>
        <mxCell id="pHMIvahdG2m0EPIFcXSv-14" style="edgeStyle=orthogonalEdgeStyle;rounded=0;orthogonalLoop=1;jettySize=auto;html=1;fontFamily=Times New Roman;fontSize=13;" parent="1" source="pHMIvahdG2m0EPIFcXSv-5" target="pHMIvahdG2m0EPIFcXSv-11" edge="1">
          <mxGeometry relative="1" as="geometry" />
        </mxCell>
        <mxCell id="pHMIvahdG2m0EPIFcXSv-5" value="数据行" style="rounded=0;whiteSpace=wrap;html=1;fillColor=none;strokeColor=#23445d;fontFamily=Times New Roman;fontSize=13;" parent="1" vertex="1">
          <mxGeometry x="206" y="118" width="120" height="22" as="geometry" />
        </mxCell>
        <mxCell id="pHMIvahdG2m0EPIFcXSv-17" style="edgeStyle=orthogonalEdgeStyle;rounded=0;orthogonalLoop=1;jettySize=auto;html=1;fontFamily=Times New Roman;fontSize=13;" parent="1" source="pHMIvahdG2m0EPIFcXSv-9" target="pHMIvahdG2m0EPIFcXSv-15" edge="1">
          <mxGeometry relative="1" as="geometry" />
        </mxCell>
        <mxCell id="pHMIvahdG2m0EPIFcXSv-9" value="时间分区 1" style="shape=process;whiteSpace=wrap;html=1;backgroundOutline=1;fillColor=none;strokeColor=#000000;fontSize=13;" parent="1" vertex="1">
          <mxGeometry x="385" y="4" width="120" height="38" as="geometry" />
        </mxCell>
        <mxCell id="pHMIvahdG2m0EPIFcXSv-20" style="edgeStyle=orthogonalEdgeStyle;rounded=0;orthogonalLoop=1;jettySize=auto;html=1;entryX=0;entryY=0.5;entryDx=0;entryDy=0;fontFamily=Times New Roman;fontSize=13;" parent="1" source="pHMIvahdG2m0EPIFcXSv-10" target="pHMIvahdG2m0EPIFcXSv-15" edge="1">
          <mxGeometry relative="1" as="geometry" />
        </mxCell>
        <mxCell id="pHMIvahdG2m0EPIFcXSv-10" value="时间分区 2" style="shape=process;whiteSpace=wrap;html=1;backgroundOutline=1;fillColor=none;strokeColor=#000000;fontFamily=Times New Roman;fontSize=13;" parent="1" vertex="1">
          <mxGeometry x="385" y="57" width="120" height="38" as="geometry" />
        </mxCell>
        <mxCell id="pHMIvahdG2m0EPIFcXSv-21" style="edgeStyle=orthogonalEdgeStyle;rounded=0;orthogonalLoop=1;jettySize=auto;html=1;entryX=0;entryY=0.5;entryDx=0;entryDy=0;fontFamily=Times New Roman;fontSize=13;" parent="1" source="pHMIvahdG2m0EPIFcXSv-11" target="pHMIvahdG2m0EPIFcXSv-15" edge="1">
          <mxGeometry relative="1" as="geometry" />
        </mxCell>
        <mxCell id="pHMIvahdG2m0EPIFcXSv-11" value="时间分区 3" style="shape=process;whiteSpace=wrap;html=1;backgroundOutline=1;fillColor=none;strokeColor=#000000;fontFamily=Times New Roman;fontSize=13;" parent="1" vertex="1">
          <mxGeometry x="385" y="110" width="120" height="38" as="geometry" />
        </mxCell>
        <mxCell id="pHMIvahdG2m0EPIFcXSv-19" style="edgeStyle=orthogonalEdgeStyle;rounded=0;orthogonalLoop=1;jettySize=auto;html=1;fontFamily=Times New Roman;fontSize=13;" parent="1" source="pHMIvahdG2m0EPIFcXSv-15" target="pHMIvahdG2m0EPIFcXSv-16" edge="1">
          <mxGeometry relative="1" as="geometry" />
        </mxCell>
        <mxCell id="pHMIvahdG2m0EPIFcXSv-15" value="计算内存开销&lt;br style=&quot;font-size: 13px;&quot;&gt;&amp;amp;&lt;br style=&quot;font-size: 13px;&quot;&gt;写入 WAL" style="ellipse;whiteSpace=wrap;html=1;fillColor=none;strokeColor=#000000;fontFamily=Times New Roman;fontSize=13;" parent="1" vertex="1">
          <mxGeometry x="550" y="36" width="120" height="80" as="geometry" />
        </mxCell>
        <mxCell id="pHMIvahdG2m0EPIFcXSv-16" value="写入内存表" style="ellipse;whiteSpace=wrap;html=1;fillColor=none;strokeColor=#000000;fontFamily=Times New Roman;fontSize=13;" parent="1" vertex="1">
          <mxGeometry x="698" y="36" width="120" height="80" as="geometry" />
        </mxCell>
      </root>
    </mxGraphModel>
  </diagram>
</mxfile>
